<svg xmlns="http://www.w3.org/2000/svg" width="24" height="24" fill="none" viewBox="0 0 24 24">
  <path fill="#EBE6EB" d="M22.04 12.32a1.125 1.125 0 0 0-1.04-.695h-3.375v-.375a1.125 1.125 0 0 0-1.125-1.125h-9a1.125 1.125 0 0 0-1.125 1.125v.375H3a1.125 1.125 0 0 0-.796 1.92l9 9a1.125 1.125 0 0 0 1.594 0l9-9a1.124 1.124 0 0 0 .242-1.225ZM12 20.156l-6.281-6.281H7.5a1.125 1.125 0 0 0 1.125-1.125v-.375h6.75v.375a1.125 1.125 0 0 0 1.125 1.125h1.781L12 20.156ZM6.375 3.75A1.125 1.125 0 0 1 7.5 2.625h9a1.125 1.125 0 0 1 0 2.25h-9A1.125 1.125 0 0 1 6.375 3.75Zm0 3.75A1.125 1.125 0 0 1 7.5 6.375h9a1.125 1.125 0 0 1 0 2.25h-9A1.125 1.125 0 0 1 6.375 7.5Z"/>
</svg>
