<svg xmlns="http://www.w3.org/2000/svg" width="24" height="24" fill="none" viewBox="0 0 24 24">
  <path fill="#EBE6EB" d="M8.296 13.454a1.127 1.127 0 0 1-1.594 1.594l-4.5-4.5a1.127 1.127 0 0 1 0-1.594l4.5-4.5a1.127 1.127 0 0 1 1.594 1.594L4.594 9.75l3.702 3.704ZM12 8.625h-1.031l2.58-2.58a1.127 1.127 0 0 0-1.594-1.594l-4.5 4.5a1.125 1.125 0 0 0 0 1.594l4.5 4.5a1.127 1.127 0 1 0 1.594-1.594l-2.58-2.576H12a7.884 7.884 0 0 1 7.875 7.875 1.125 1.125 0 1 0 2.25 0A10.136 10.136 0 0 0 12 8.625Z"/>
</svg>
