<svg xmlns="http://www.w3.org/2000/svg" width="24" height="24" fill="none" viewBox="0 0 24 24">
  <g clip-path="url(#a)">
    <path fill="#EBE6EB" d="M18.375 4.875H2.625A2.625 2.625 0 0 0 0 7.5v9a2.625 2.625 0 0 0 2.625 2.625h15.75A2.625 2.625 0 0 0 21 16.5v-9a2.625 2.625 0 0 0-2.625-2.625ZM18.75 16.5a.375.375 0 0 1-.375.375H2.625a.375.375 0 0 1-.375-.375v-9a.375.375 0 0 1 .375-.375h15.75a.375.375 0 0 1 .375.375v9ZM24 9.75v4.5a1.125 1.125 0 1 1-2.25 0v-4.5a1.125 1.125 0 1 1 2.25 0ZM9.375 10.875v-1.5a1.125 1.125 0 0 1 2.25 0v1.5a1.125 1.125 0 1 1-2.25 0ZM12 14.25a1.5 1.5 0 1 1-3 0 1.5 1.5 0 0 1 3 0Z"/>
  </g>
  <defs>
    <clipPath id="a">
      <path fill="#fff" d="M0 0h24v24H0z"/>
    </clipPath>
  </defs>
</svg>
