<svg xmlns="http://www.w3.org/2000/svg" width="24" height="24" fill="none" viewBox="0 0 24 24">
  <path fill="#EBE6EB" d="M16.125 6.75v12a1.125 1.125 0 1 1-2.25 0v-12a1.125 1.125 0 1 1 2.25 0Zm2.625-4.875A1.125 1.125 0 0 0 17.625 3v15.75a1.125 1.125 0 1 0 2.25 0V3a1.125 1.125 0 0 0-1.125-1.125Zm-7.5 7.5a1.125 1.125 0 0 0-1.125 1.125v8.25a1.125 1.125 0 1 0 2.25 0V10.5a1.125 1.125 0 0 0-1.125-1.125Zm-3.75 3.75a1.125 1.125 0 0 0-1.125 1.125v4.5a1.125 1.125 0 0 0 2.25 0v-4.5A1.125 1.125 0 0 0 7.5 13.125Zm-3.75 3.75A1.125 1.125 0 0 0 2.625 18v.75a1.125 1.125 0 0 0 2.25 0V18a1.125 1.125 0 0 0-1.125-1.125Z"/>
</svg>
