<svg xmlns="http://www.w3.org/2000/svg" width="24" height="24" viewBox="0 0 24 24">
  <path fill="#EBE6EB" d="M19.125 7.091V3.75a1.875 1.875 0 0 0-1.875-1.875H6.75A1.875 1.875 0 0 0 4.875 3.75v3.375a1.884 1.884 0 0 0 .75 1.5l4.5 3.375-4.5 3.375a1.884 1.884 0 0 0-.75 1.5v3.375a1.875 1.875 0 0 0 1.875 1.875h10.5a1.875 1.875 0 0 0 1.875-1.875v-3.341a1.887 1.887 0 0 0-.744-1.5L13.866 12l4.515-3.412a1.887 1.887 0 0 0 .744-1.497Zm-2.25 12.784h-9.75v-2.813L12 13.406l4.875 3.687v2.782Zm0-12.97L12 10.594 7.125 6.938V4.124h9.75v2.78Z"/>
</svg>
