<svg xmlns="http://www.w3.org/2000/svg" width="24" height="24" fill="none" viewBox="0 0 24 24">
  <path fill="#EBE6EB" d="M22.628 21.703a1.124 1.124 0 0 1-1.581.175c-.032-.025-3.55-2.753-9.047-2.753-5.497 0-9.016 2.728-9.05 2.755a1.126 1.126 0 1 1-1.407-1.758c.152-.122 3.522-2.769 8.986-3.188a11.55 11.55 0 0 1-.216-3.24c.156-1.95.926-4.492 3.468-6.543a4.943 4.943 0 0 0-.626-.021c-1.612.052-2.588.972-3.07 2.895a1.125 1.125 0 0 1-1.359.816 1.125 1.125 0 0 1-.818-1.364c.418-1.668 1.646-4.483 5.18-4.594.465-.012.93.02 1.388.094-.325-.458-.732-.863-1.226-1.068-.777-.321-1.756-.124-2.912.584A1.127 1.127 0 0 1 9.16 2.572c1.81-1.11 3.48-1.36 4.962-.74.981.41 1.84 1.211 2.508 2.332.55-.674 1.193-1.142 1.894-1.37 1.54-.5 2.972.232 3.903.938a1.125 1.125 0 1 1-1.357 1.795c-.73-.553-1.352-.75-1.845-.593-.428.138-.792.532-1.071.955.534.15 1.05.364 1.532.637 1.452.831 3.188 2.587 3.188 6.224a1.125 1.125 0 0 1-2.25 0c0-1.875-.575-3.228-1.707-4.045a5.8 5.8 0 0 1-.687 4.593 1.124 1.124 0 0 1-2.083-.33 1.125 1.125 0 0 1 .181-.868c.273-.451.449-.954.517-1.477.11-.852-.1-1.67-.624-2.438-2.214 1.339-3.443 3.221-3.657 5.606a9.36 9.36 0 0 0 .27 3.1c5.833.254 9.46 3.1 9.618 3.227a1.125 1.125 0 0 1 .175 1.585ZM1.875 13.5a3 3 0 1 1 6 0 3 3 0 0 1-6 0Zm2.25 0a.75.75 0 1 0 1.5 0 .75.75 0 0 0-1.5 0Z"/>
</svg>
