<svg xmlns="http://www.w3.org/2000/svg" width="24" height="24" fill="none" viewBox="0 0 24 24">
  <path fill="#EBE6EB" d="M15.494 1.99a1.125 1.125 0 0 0-1.185.122L7.864 7.125H3.75A1.875 1.875 0 0 0 1.875 9v6a1.875 1.875 0 0 0 1.875 1.875h4.114l6.445 5.013A1.125 1.125 0 0 0 16.125 21V3a1.125 1.125 0 0 0-.63-1.01ZM13.875 18.7l-4.934-3.838a1.126 1.126 0 0 0-.691-.237H4.125v-5.25H8.25c.25 0 .493-.084.69-.237L13.876 5.3v13.4Zm6-8.95v4.5a1.125 1.125 0 1 1-2.25 0v-4.5a1.125 1.125 0 1 1 2.25 0Zm3.375-1.5v7.5a1.125 1.125 0 1 1-2.25 0v-7.5a1.125 1.125 0 1 1 2.25 0Z"/>
</svg>
