<svg xmlns="http://www.w3.org/2000/svg" width="24" height="24" viewBox="0 0 24 24">
  <path fill="#EBE6EB" d="M12 7.125a4.875 4.875 0 1 0 0 9.75 4.875 4.875 0 0 0 0-9.75Zm0 7.5a2.625 2.625 0 1 1 0-5.25 2.625 2.625 0 0 1 0 5.25Zm10.674-4.647a1.125 1.125 0 0 0-.549-.759L19.52 7.733l-.01-2.935a1.125 1.125 0 0 0-.4-.855 10.874 10.874 0 0 0-3.562-2.007 1.124 1.124 0 0 0-.907.083L12 3.494 9.36 2.018a1.125 1.125 0 0 0-.91-.084 10.88 10.88 0 0 0-3.563 2.013 1.125 1.125 0 0 0-.397.853l-.013 2.938L1.875 9.22a1.125 1.125 0 0 0-.548.76 10.378 10.378 0 0 0 0 4.042 1.124 1.124 0 0 0 .548.759l2.608 1.486.01 2.935a1.125 1.125 0 0 0 .399.855c1.05.888 2.259 1.57 3.562 2.007a1.126 1.126 0 0 0 .908-.083L12 20.506l2.638 1.476a1.127 1.127 0 0 0 .91.084 10.88 10.88 0 0 0 3.562-2.013 1.126 1.126 0 0 0 .398-.853l.013-2.938 2.607-1.482a1.125 1.125 0 0 0 .548-.76 10.378 10.378 0 0 0-.002-4.042Zm-2.121 3.11-2.52 1.433a1.12 1.12 0 0 0-.427.43 5.12 5.12 0 0 1-.16.27c-.11.178-.17.383-.17.592l-.014 2.843c-.606.457-1.27.83-1.975 1.113l-2.545-1.424a1.125 1.125 0 0 0-.55-.143h-.349c-.201-.005-.4.044-.576.141l-2.548 1.421a8.653 8.653 0 0 1-1.98-1.108l-.01-2.835a1.116 1.116 0 0 0-.172-.592 6.967 6.967 0 0 1-.16-.27 1.118 1.118 0 0 0-.425-.428l-2.522-1.44a8.112 8.112 0 0 1 0-2.18L5.97 9.48c.179-.101.326-.25.427-.43.05-.093.104-.181.159-.27a1.14 1.14 0 0 0 .172-.592l.01-2.843a8.609 8.609 0 0 1 1.975-1.11l2.545 1.425c.176.098.376.148.577.142h.322c.201.005.4-.044.576-.141l2.548-1.424c.706.28 1.372.653 1.98 1.108l.01 2.835c.001.21.06.415.172.592.054.088.109.18.16.27.1.18.247.327.425.428l2.522 1.437c.1.724.1 1.458.003 2.182Z"/>
</svg>
